<svg width="0" height="0" class="hidden">
  <symbol fill="none" xmlns="http://www.w3.org/2000/svg" viewBox="0 0 15 17" id="Arrow">
    <path d="M12.8229 1.6731C12.7461 1.12619 12.2404 0.745143 11.6935 0.822006L2.78109 2.07456C2.23418 2.15143 1.85313 2.6571 1.92999 3.20401C2.00685 3.75092 2.51252 4.13196 3.05943 4.0551L10.9816 2.94172L12.095 10.8639C12.1718 11.4108 12.6775 11.7918 13.2244 11.715C13.7713 11.6381 14.1524 11.1324 14.0755 10.5855L12.8229 1.6731ZM1.79864 16.7895L12.6313 2.41409L11.034 1.21046L0.201365 15.5859L1.79864 16.7895Z" fill="#FBFBFB"></path>
  </symbol>
  <symbol fill="none" xmlns="http://www.w3.org/2000/svg" viewBox="0 0 20 20" id="clock">
    <g clip-path="url(#clip0_33_527)">
      <path d="M9.99996 18.3333C14.6023 18.3333 18.3333 14.6024 18.3333 10C18.3333 5.39763 14.6023 1.66667 9.99996 1.66667C5.39759 1.66667 1.66663 5.39763 1.66663 10C1.66663 14.6024 5.39759 18.3333 9.99996 18.3333Z" stroke="#191A15" stroke-width="1.5" stroke-linecap="round" stroke-linejoin="round"></path>
      <path d="M10 5V10L13.3333 11.6667" stroke="#191A15" stroke-width="1.5" stroke-linecap="round" stroke-linejoin="round"></path>
    </g>
    <defs>
      <clipPath id="clip0_33_527">
        <rect width="20" height="20" fill="white"></rect>
      </clipPath>
    </defs>
  </symbol>
  <symbol fill="none" xmlns="http://www.w3.org/2000/svg" viewBox="0 0 16 16" id="Vector">
    <path d="M8 0C9.06087 0 10.0783 0.421427 10.8284 1.17157C11.5786 1.92172 12 2.93913 12 4C12 5.06087 11.5786 6.07828 10.8284 6.82843C10.0783 7.57857 9.06087 8 8 8C6.93913 8 5.92172 7.57857 5.17157 6.82843C4.42143 6.07828 4 5.06087 4 4C4 2.93913 4.42143 1.92172 5.17157 1.17157C5.92172 0.421427 6.93913 0 8 0ZM8 10C12.42 10 16 11.79 16 14V16H0V14C0 11.79 3.58 10 8 10Z" fill="#FBFBFB"></path>
  </symbol>
  <symbol fill="none" xmlns="http://www.w3.org/2000/svg" viewBox="0 0 20 20" id="eye">
    <g clip-path="url(#clip0_33_593)">
      <path d="M0.833374 10C0.833374 10 4.16671 3.33334 10 3.33334C15.8334 3.33334 19.1667 10 19.1667 10C19.1667 10 15.8334 16.6667 10 16.6667C4.16671 16.6667 0.833374 10 0.833374 10Z" stroke="#191A15" stroke-width="2" stroke-linecap="round" stroke-linejoin="round"></path>
      <path d="M10 12.5C11.3807 12.5 12.5 11.3807 12.5 10C12.5 8.61929 11.3807 7.5 10 7.5C8.61929 7.5 7.5 8.61929 7.5 10C7.5 11.3807 8.61929 12.5 10 12.5Z" stroke="#191A15" stroke-width="2" stroke-linecap="round" stroke-linejoin="round"></path>
    </g>
    <defs>
      <clipPath id="clip0_33_593">
        <rect width="20" height="20" fill="white"></rect>
      </clipPath>
    </defs>
  </symbol>
  <symbol fill="none" xmlns="http://www.w3.org/2000/svg" viewBox="0 0 20 20" id="eye-off">
    <g clip-path="url(#clip0_33_590)">
      <path d="M14.95 14.95C13.5255 16.0358 11.791 16.6374 10 16.6667C4.16671 16.6667 0.833374 10 0.833374 10C1.86995 8.06825 3.30765 6.38051 5.05004 5.05M8.25004 3.53333C8.82365 3.39907 9.41093 3.33195 10 3.33333C15.8334 3.33333 19.1667 10 19.1667 10C18.6609 10.9463 18.0576 11.8373 17.3667 12.6583M11.7667 11.7667C11.5378 12.0123 11.2618 12.2093 10.9552 12.3459C10.6485 12.4826 10.3175 12.556 9.98178 12.562C9.64611 12.5679 9.31268 12.5061 9.00138 12.3804C8.69009 12.2547 8.40731 12.0675 8.16991 11.8301C7.93252 11.5927 7.74537 11.31 7.61963 10.9987C7.4939 10.6874 7.43215 10.3539 7.43807 10.0183C7.44399 9.68258 7.51747 9.35154 7.65411 9.04487C7.79075 8.73821 7.98775 8.46221 8.23338 8.23333" stroke="#191A15" stroke-width="2" stroke-linecap="round" stroke-linejoin="round"></path>
      <path d="M0.833374 0.833336L19.1667 19.1667" stroke="#191A15" stroke-width="2" stroke-linecap="round" stroke-linejoin="round"></path>
    </g>
    <defs>
      <clipPath id="clip0_33_590">
        <rect width="20" height="20" fill="white"></rect>
      </clipPath>
    </defs>
  </symbol>
  <symbol fill="none" xmlns="http://www.w3.org/2000/svg" viewBox="0 0 26 26" id="hart">
    <path d="M22.5766 4.99417C22.0233 4.44059 21.3663 4.00145 20.6433 3.70184C19.9202 3.40223 19.1452 3.24802 18.3625 3.24802C17.5798 3.24802 16.8047 3.40223 16.0817 3.70184C15.3586 4.00145 14.7016 4.44059 14.1483 4.99417L13 6.1425L11.8516 4.99417C10.734 3.8765 9.21809 3.2486 7.63747 3.2486C6.05685 3.2486 4.54097 3.8765 3.4233 4.99417C2.30563 6.11183 1.67773 7.62772 1.67773 9.20833C1.67773 10.789 2.30563 12.3048 3.4233 13.4225L4.57163 14.5708L13 22.9992L21.4283 14.5708L22.5766 13.4225C23.1302 12.8692 23.5693 12.2122 23.869 11.4891C24.1686 10.7661 24.3228 9.99103 24.3228 9.20833C24.3228 8.42564 24.1686 7.65061 23.869 6.92753C23.5693 6.20445 23.1302 5.54749 22.5766 4.99417Z" fill="#54BE96" stroke="#54BE96" stroke-width="2" stroke-linecap="round" stroke-linejoin="round"></path>
  </symbol>
  <symbol fill="none" xmlns="http://www.w3.org/2000/svg" viewBox="0 0 26 26" id="hartoff">
    <path d="M22.5766 4.99416C22.0233 4.44058 21.3663 4.00144 20.6433 3.70184C19.9202 3.40223 19.1452 3.24802 18.3625 3.24802C17.5798 3.24802 16.8047 3.40223 16.0817 3.70184C15.3586 4.00144 14.7016 4.44058 14.1483 4.99416L13 6.14249L11.8516 4.99416C10.734 3.87649 9.21809 3.2486 7.63747 3.2486C6.05685 3.2486 4.54097 3.87649 3.4233 4.99416C2.30563 6.11183 1.67773 7.62771 1.67773 9.20833C1.67773 10.7889 2.30563 12.3048 3.4233 13.4225L4.57163 14.5708L13 22.9992L21.4283 14.5708L22.5766 13.4225C23.1302 12.8692 23.5693 12.2122 23.869 11.4891C24.1686 10.766 24.3228 9.99102 24.3228 9.20833C24.3228 8.42563 24.1686 7.65061 23.869 6.92753C23.5693 6.20445 23.1302 5.54748 22.5766 4.99416Z" stroke="#191A15" stroke-width="2" stroke-linecap="round" stroke-linejoin="round"></path>
  </symbol>
  <svg width="0" height="0" class="hidden">
  <symbol fill="none" xmlns="http://www.w3.org/2000/svg" viewBox="0 0 9 8" id="Group">
    <circle cx="4.5" cy="4" r="4" fill="#54BE96"></circle>
  </symbol>
</svg>
<svg width="0" height="0" class="hidden">
  <symbol fill="none" xmlns="http://www.w3.org/2000/svg" viewBox="0 0 16 16" id="star">
    <g clip-path="url(#clip0_33_570)">
      <path d="M6.20021 4.69703L8 1.28579L9.79979 4.69703C9.95896 4.9987 10.2491 5.20947 10.5851 5.26762L14.3856 5.92519L11.6975 8.69103C11.4598 8.93563 11.3489 9.27666 11.3975 9.61427L11.9465 13.4319L8.48537 11.7301C8.17929 11.5795 7.82071 11.5796 7.51463 11.7301L4.05348 13.4319L4.6025 9.61427C4.65105 9.27666 4.54024 8.93563 4.30252 8.69103L1.6144 5.92519L5.41486 5.26762C5.75095 5.20947 6.04104 4.9987 6.20021 4.69703ZM14.5177 5.78928L14.5175 5.78947L14.5177 5.78928ZM3.8834 13.5155C3.88344 13.5155 3.88349 13.5155 3.88353 13.5155L3.8834 13.5155Z" fill="#FFC531" stroke="#FFC531" stroke-width="1.2"></path>
    </g>
    <defs>
      <clipPath id="clip0_33_570">
        <rect width="16" height="16" fill="white"></rect>
      </clipPath>
    </defs>
  </symbol>
</svg>
<svg width="32" height="32" class="hidden">
  <symbol fill="none" xmlns="http://www.w3.org/2000/svg" viewBox="0 0 32 32" id="out">
    <path d="M24 8L8 24" stroke="#191a15" stroke-width="2.5" stroke-linecap="round" stroke-linejoin="round"></path>
    <path d="M8 8L24 24" stroke="#191a15" stroke-width="2.5" stroke-linecap="round" stroke-linejoin="round"></path>
  </symbol>
</svg>
</svg>