<svg width="0" height="0" class="hidden">
  <symbol fill="none" xmlns="http://www.w3.org/2000/svg" viewBox="0 0 15 17" id="Arrow">
    <path d="M12.8229 1.6731C12.7461 1.12619 12.2404 0.745143 11.6935 0.822006L2.78109 2.07456C2.23418 2.15143 1.85313 2.6571 1.92999 3.20401C2.00685 3.75092 2.51252 4.13196 3.05943 4.0551L10.9816 2.94172L12.095 10.8639C12.1718 11.4108 12.6775 11.7918 13.2244 11.715C13.7713 11.6381 14.1524 11.1324 14.0755 10.5855L12.8229 1.6731ZM1.79864 16.7895L12.6313 2.41409L11.034 1.21046L0.201365 15.5859L1.79864 16.7895Z" fill="#FBFBFB"></path>
  </symbol>
  <symbol fill="none" xmlns="http://www.w3.org/2000/svg" viewBox="0 0 20 20" id="clock">
    <g clip-path="url(#clip0_33_527)">
      <path d="M9.99996 18.3333C14.6023 18.3333 18.3333 14.6024 18.3333 10C18.3333 5.39763 14.6023 1.66667 9.99996 1.66667C5.39759 1.66667 1.66663 5.39763 1.66663 10C1.66663 14.6024 5.39759 18.3333 9.99996 18.3333Z" stroke="#191A15" stroke-width="1.5" stroke-linecap="round" stroke-linejoin="round"></path>
      <path d="M10 5V10L13.3333 11.6667" stroke="#191A15" stroke-width="1.5" stroke-linecap="round" stroke-linejoin="round"></path>
    </g>
    <defs>
      <clipPath id="clip0_33_527">
        <rect width="20" height="20" fill="white"></rect>
      </clipPath>
    </defs>
  </symbol>
  <symbol fill="none" xmlns="http://www.w3.org/2000/svg" viewBox="0 0 16 16" id="Vector">
    <path d="M8 0C9.06087 0 10.0783 0.421427 10.8284 1.17157C11.5786 1.92172 12 2.93913 12 4C12 5.06087 11.5786 6.07828 10.8284 6.82843C10.0783 7.57857 9.06087 8 8 8C6.93913 8 5.92172 7.57857 5.17157 6.82843C4.42143 6.07828 4 5.06087 4 4C4 2.93913 4.42143 1.92172 5.17157 1.17157C5.92172 0.421427 6.93913 0 8 0ZM8 10C12.42 10 16 11.79 16 14V16H0V14C0 11.79 3.58 10 8 10Z" fill="#FBFBFB"></path>
  </symbol>
  <symbol fill="none" xmlns="http://www.w3.org/2000/svg" viewBox="0 0 20 20" id="eye">
    <g clip-path="url(#clip0_33_593)">
      <path d="M0.833374 10C0.833374 10 4.16671 3.33334 10 3.33334C15.8334 3.33334 19.1667 10 19.1667 10C19.1667 10 15.8334 16.6667 10 16.6667C4.16671 16.6667 0.833374 10 0.833374 10Z" stroke="#191A15" stroke-width="2" stroke-linecap="round" stroke-linejoin="round"></path>
      <path d="M10 12.5C11.3807 12.5 12.5 11.3807 12.5 10C12.5 8.61929 11.3807 7.5 10 7.5C8.61929 7.5 7.5 8.61929 7.5 10C7.5 11.3807 8.61929 12.5 10 12.5Z" stroke="#191A15" stroke-width="2" stroke-linecap="round" stroke-linejoin="round"></path>
    </g>
    <defs>
      <clipPath id="clip0_33_593">
        <rect width="20" height="20" fill="white"></rect>
      </clipPath>
    </defs>
  </symbol>
  <symbol fill="none" xmlns="http://www.w3.org/2000/svg" viewBox="0 0 20 20" id="eye-off">
    <g clip-path="url(#clip0_33_590)">
      <path d="M14.95 14.95C13.5255 16.0358 11.791 16.6374 10 16.6667C4.16671 16.6667 0.833374 10 0.833374 10C1.86995 8.06825 3.30765 6.38051 5.05004 5.05M8.25004 3.53333C8.82365 3.39907 9.41093 3.33195 10 3.33333C15.8334 3.33333 19.1667 10 19.1667 10C18.6609 10.9463 18.0576 11.8373 17.3667 12.6583M11.7667 11.7667C11.5378 12.0123 11.2618 12.2093 10.9552 12.3459C10.6485 12.4826 10.3175 12.556 9.98178 12.562C9.64611 12.5679 9.31268 12.5061 9.00138 12.3804C8.69009 12.2547 8.40731 12.0675 8.16991 11.8301C7.93252 11.5927 7.74537 11.31 7.61963 10.9987C7.4939 10.6874 7.43215 10.3539 7.43807 10.0183C7.44399 9.68258 7.51747 9.35154 7.65411 9.04487C7.79075 8.73821 7.98775 8.46221 8.23338 8.23333" stroke="#191A15" stroke-width="2" stroke-linecap="round" stroke-linejoin="round"></path>
      <path d="M0.833374 0.833336L19.1667 19.1667" stroke="#191A15" stroke-width="2" stroke-linecap="round" stroke-linejoin="round"></path>
    </g>
    <defs>
      <clipPath id="clip0_33_590">
        <rect width="20" height="20" fill="white"></rect>
      </clipPath>
    </defs>
  </symbol>
  <symbol fill="none" xmlns="http://www.w3.org/2000/svg" viewBox="0 0 26 26" id="hart">
    <path d="M22.5766 4.99417C22.0233 4.44059 21.3663 4.00145 20.6433 3.70184C19.9202 3.40223 19.1452 3.24802 18.3625 3.24802C17.5798 3.24802 16.8047 3.40223 16.0817 3.70184C15.3586 4.00145 14.7016 4.44059 14.1483 4.99417L13 6.1425L11.8516 4.99417C10.734 3.8765 9.21809 3.2486 7.63747 3.2486C6.05685 3.2486 4.54097 3.8765 3.4233 4.99417C2.30563 6.11183 1.67773 7.62772 1.67773 9.20833C1.67773 10.789 2.30563 12.3048 3.4233 13.4225L4.57163 14.5708L13 22.9992L21.4283 14.5708L22.5766 13.4225C23.1302 12.8692 23.5693 12.2122 23.869 11.4891C24.1686 10.7661 24.3228 9.99103 24.3228 9.20833C24.3228 8.42564 24.1686 7.65061 23.869 6.92753C23.5693 6.20445 23.1302 5.54749 22.5766 4.99417Z" fill="#54BE96" stroke="#54BE96" stroke-width="2" stroke-linecap="round" stroke-linejoin="round"></path>
  </symbol>
  <symbol fill="none" xmlns="http://www.w3.org/2000/svg" viewBox="0 0 26 26" id="hartoff">
    <path d="M22.5766 4.99416C22.0233 4.44058 21.3663 4.00144 20.6433 3.70184C19.9202 3.40223 19.1452 3.24802 18.3625 3.24802C17.5798 3.24802 16.8047 3.40223 16.0817 3.70184C15.3586 4.00144 14.7016 4.44058 14.1483 4.99416L13 6.14249L11.8516 4.99416C10.734 3.87649 9.21809 3.2486 7.63747 3.2486C6.05685 3.2486 4.54097 3.87649 3.4233 4.99416C2.30563 6.11183 1.67773 7.62771 1.67773 9.20833C1.67773 10.7889 2.30563 12.3048 3.4233 13.4225L4.57163 14.5708L13 22.9992L21.4283 14.5708L22.5766 13.4225C23.1302 12.8692 23.5693 12.2122 23.869 11.4891C24.1686 10.766 24.3228 9.99102 24.3228 9.20833C24.3228 8.42563 24.1686 7.65061 23.869 6.92753C23.5693 6.20445 23.1302 5.54748 22.5766 4.99416Z" stroke="#191A15" stroke-width="2" stroke-linecap="round" stroke-linejoin="round"></path>
  </symbol>

<svg width="0" height="0" class="hidden">
  <symbol fill="none" xmlns="http://www.w3.org/2000/svg" viewBox="0 0 16 16" id="star">
    <g clip-path="url(#clip0_33_570)">
      <path d="M6.20021 4.69703L8 1.28579L9.79979 4.69703C9.95896 4.9987 10.2491 5.20947 10.5851 5.26762L14.3856 5.92519L11.6975 8.69103C11.4598 8.93563 11.3489 9.27666 11.3975 9.61427L11.9465 13.4319L8.48537 11.7301C8.17929 11.5795 7.82071 11.5796 7.51463 11.7301L4.05348 13.4319L4.6025 9.61427C4.65105 9.27666 4.54024 8.93563 4.30252 8.69103L1.6144 5.92519L5.41486 5.26762C5.75095 5.20947 6.04104 4.9987 6.20021 4.69703ZM14.5177 5.78928L14.5175 5.78947L14.5177 5.78928ZM3.8834 13.5155C3.88344 13.5155 3.88349 13.5155 3.88353 13.5155L3.8834 13.5155Z" fill="#FFC531" stroke="#FFC531" stroke-width="1.2"></path>
    </g>
    <defs>
      <clipPath id="clip0_33_570">
        <rect width="16" height="16" fill="white"></rect>
      </clipPath>
    </defs>
  </symbol>
</svg>
<svg width="32" height="32" class="hidden">
  <symbol fill="none" xmlns="http://www.w3.org/2000/svg" viewBox="0 0 32 32" id="out">
    <path d="M24 8L8 24" stroke="#191a15" stroke-width="2.5" stroke-linecap="round" stroke-linejoin="round"></path>
    <path d="M8 8L24 24" stroke="#191a15" stroke-width="2.5" stroke-linecap="round" stroke-linejoin="round"></path>
  </symbol>
</svg>
<svg width="0" height="0" class="hidden">
  <symbol fill="none" xmlns="http://www.w3.org/2000/svg" viewBox="0 0 14 14" id="Group">
    <circle cx="7" cy="7" r="7" fill="#FBFBFB"></circle>
    <circle cx="6.99992" cy="7.00009" r="4.66667" fill="#38CD3E"></circle>
  </symbol>
</svg>
<svg width="0" height="0" class="hidden">
  <symbol fill="none" xmlns="http://www.w3.org/2000/svg" viewBox="0 0 30 30" id="fe_check">
    <g clip-path="url(#clip0_1_26)">
      <g filter="url(#filter0_d_1_26)">
        <path fill-rule="evenodd" clip-rule="evenodd" d="M7.5 12.5L5 15L12.5 22.5L25 10L22.5 7.5L12.5 17.5L7.5 12.5Z" fill="#54BE96"></path>
      </g>
    </g>
    <defs>
      <filter id="filter0_d_1_26" x="1" y="7.5" width="28" height="23" filterUnits="userSpaceOnUse" color-interpolation-filters="sRGB">
        <feFlood flood-opacity="0" result="BackgroundImageFix"></feFlood>
        <feColorMatrix in="SourceAlpha" type="matrix" values="0 0 0 0 0 0 0 0 0 0 0 0 0 0 0 0 0 0 127 0" result="hardAlpha"></feColorMatrix>
        <feOffset dy="4"></feOffset>
        <feGaussianBlur stdDeviation="2"></feGaussianBlur>
        <feComposite in2="hardAlpha" operator="out"></feComposite>
        <feColorMatrix type="matrix" values="0 0 0 0 0 0 0 0 0 0 0 0 0 0 0 0 0 0 0.25 0"></feColorMatrix>
        <feBlend mode="normal" in2="BackgroundImageFix" result="effect1_dropShadow_1_26"></feBlend>
        <feBlend mode="normal" in="SourceGraphic" in2="effect1_dropShadow_1_26" result="shape"></feBlend>
      </filter>
      <clipPath id="clip0_1_26">
        <rect width="30" height="30" fill="white"></rect>
      </clipPath>
    </defs>
  </symbol>
</svg>
<svg width="0" height="0" class="hidden">
  <symbol fill="none" xmlns="http://www.w3.org/2000/svg" viewBox="0 0 10 17" id="question">
    <path d="M2.5 5.3125C2.5 4.14043 3.39687 3.1875 4.5 3.1875H5.5C6.60313 3.1875 7.5 4.14043 7.5 5.3125V5.43203C7.5 6.15586 7.15313 6.82988 6.58125 7.21836L5.2625 8.11817C4.8753 8.38268 4.5568 8.74625 4.33622 9.17554C4.11564 9.60483 4.00003 10.0861 4 10.5752V10.625C4 11.2127 4.44688 11.6875 5 11.6875C5.55312 11.6875 6 11.2127 6 10.625V10.5785C6 10.3063 6.13125 10.0539 6.34375 9.90781L7.6625 9.00801C8.80625 8.22442 9.5 6.87969 9.5 5.43203V5.3125C9.5 2.96504 7.70937 1.0625 5.5 1.0625H4.5C2.29063 1.0625 0.5 2.96504 0.5 5.3125C0.5 5.9002 0.946875 6.375 1.5 6.375C2.05313 6.375 2.5 5.9002 2.5 5.3125ZM5 15.9375C5.33152 15.9375 5.64946 15.7976 5.88388 15.5485C6.1183 15.2994 6.25 14.9616 6.25 14.6094C6.25 14.2571 6.1183 13.9193 5.88388 13.6703C5.64946 13.4212 5.33152 13.2813 5 13.2813C4.66848 13.2813 4.35054 13.4212 4.11612 13.6703C3.8817 13.9193 3.75 14.2571 3.75 14.6094C3.75 14.9616 3.8817 15.2994 4.11612 15.5485C4.35054 15.7976 4.66848 15.9375 5 15.9375Z" fill="#FBFBFB"></path>
  </symbol>
</svg>
<svg width="0" height="0" class="hidden">
  <symbol id="Hamburger" version="1.1" xml:space="preserve" xmlns="http://www.w3.org/2000/svg" xmlns:xlink="http://www.w3.org/1999/xlink" viewBox="0 0 32 32">
    <path d="M4,10h24c1.104,0,2-0.896,2-2s-0.896-2-2-2H4C2.896,6,2,6.896,2,8S2.896,10,4,10z M28,14H4c-1.104,0-2,0.896-2,2  s0.896,2,2,2h24c1.104,0,2-0.896,2-2S29.104,14,28,14z M28,22H4c-1.104,0-2,0.896-2,2s0.896,2,2,2h24c1.104,0,2-0.896,2-2  S29.104,22,28,22z"></path>
  </symbol>
</svg>
<svg width="0" height="0" class="hidden">
  <symbol fill="none" xmlns="http://www.w3.org/2000/svg" viewBox="0 0 25 25" id="mdi_users">
    <g clip-path="url(#clip0_1_75)">
      <path d="M14.8771 17.6007L14.4493 19.1973L3.27279 16.2026L3.70061 14.6059C3.70061 14.6059 4.55625 11.4126 10.1445 12.91C15.7328 14.4074 14.8771 17.6007 14.8771 17.6007ZM14.1151 9.26792C14.2632 8.7153 14.2441 8.13117 14.0602 7.58941C13.8763 7.04766 13.5359 6.5726 13.082 6.22431C12.6281 5.87603 12.0811 5.67016 11.5102 5.63274C10.9393 5.59532 10.3701 5.72803 9.87466 6.01409C9.37919 6.30015 8.97967 6.72672 8.72663 7.23984C8.47358 7.75295 8.37838 8.32959 8.45306 8.89681C8.52774 9.46404 8.76894 9.99638 9.14616 10.4265C9.52339 10.8567 10.0197 11.1653 10.5723 11.3134C11.3134 11.5119 12.1029 11.408 12.7674 11.0244C13.4318 10.6408 13.9166 10.009 14.1151 9.26792ZM15.6849 14.3945C16.0739 14.9058 16.3461 15.4962 16.4824 16.124C16.6187 16.7518 16.6157 17.4019 16.4738 18.0285L16.0459 19.6251L19.2392 20.4808L19.667 18.8841C19.667 18.8841 20.4435 15.9862 15.6849 14.3945ZM16.8596 7.00857C16.3109 6.85828 15.7295 6.87856 15.1927 7.06674C15.496 7.87424 15.5391 8.75644 15.3159 9.58966C15.0926 10.4229 14.6142 11.1653 13.9477 11.713C14.3185 12.1444 14.8119 12.4526 15.3623 12.5968C16.1033 12.7954 16.8929 12.6914 17.5573 12.3078C18.2217 11.9242 18.7065 11.2924 18.9051 10.5514C19.1036 9.81033 18.9997 9.02076 18.6161 8.35635C18.2325 7.69195 17.6007 7.20713 16.8596 7.00857Z" fill="#FBFBFB"></path>
    </g>
    <defs>
      <clipPath id="clip0_1_75">
        <rect width="19.8356" height="19.8356" fill="white" transform="translate(5.74042 0.606636) rotate(15)"></rect>
      </clipPath>
    </defs>
  </symbol>
</svg>
</svg>